<?xml version="1.0" encoding="UTF-8"?><svg id="Layer_2" xmlns="http://www.w3.org/2000/svg" viewBox="0 0 156.09 154.11"><defs><style>.cls-1{fill:#a17dba;}</style></defs><g id="Layer_1-2"><path class="cls-1" d="m156.08,74c.87,46.95-37.76,83.3-83.02,79.89-10.2-1.25-41.07-6.53-39.51-20.05.3-4.16,2.14-8.14,6.75-9.45,22.19-6.29,44.55-12.02,66.7-18.45,5.26-1.55,7.77-6.06,7.38-10.39-.3-3.24-2.22-7-6.02-9.22-6.52-3.81-81.02-33.8-88.64-37.86C.03,37.99,27.07,17.83,37.73,11.01c49.31-30.2,116.18,5.32,118.34,62.99Z"/><path class="cls-1" d="m.02,77.23c.1-2.48.3-4.98.84-7.38,1.87-8.94,13.92-10.67,19-3.41,4.3,5.49,8.61,10.97,12.87,16.48,4.33,5.61,3.98,11.03-1.03,16.05-2.71,2.71-5.45,5.4-8.23,8.03-6.57,6.21-14.76,4.58-18.51-3.65C2.54,98.03-.29,85.36.02,77.23Z"/></g></svg>