<?xml version="1.0" encoding="UTF-8"?><svg id="Layer_2" xmlns="http://www.w3.org/2000/svg" xmlns:xlink="http://www.w3.org/1999/xlink" viewBox="0 0 123.8 123.8"><defs><style>.cls-1{fill:none;}.cls-2{fill:url(#linear-gradient);}.cls-3{clip-path:url(#clippath);}.cls-4{fill:#fff;}.cls-5{fill:#4fba74;}</style><clipPath id="clippath"><circle class="cls-1" cx="61.9" cy="61.9" r="56.6"/></clipPath><linearGradient id="linear-gradient" x1="77.57" y1="839.12" x2="64.69" y2="729.14" gradientTransform="translate(0 -698)" gradientUnits="userSpaceOnUse"><stop offset="0" stop-color="#4fba74" stop-opacity=".6"/><stop offset="1" stop-color="#4fba74"/></linearGradient></defs><g id="Layer_2-2"><g id="Layer_1-2"><path class="cls-5" d="m61.9,123.8C27.8,123.8,0,96,0,61.9S27.8,0,61.9,0s61.9,27.8,61.9,61.9-27.8,61.9-61.9,61.9Zm0-121.8C28.9,2,2,28.9,2,61.9s26.9,59.9,59.9,59.9,59.9-26.9,59.9-59.9S94.9,2,61.9,2Z"/><g class="cls-3"><rect class="cls-2" x="-22.6" y="-1" width="183.8" height="143"/><path class="cls-4" d="m90.5,110.3c-.6-.1-1.1-.2-1.7-.4-.2,0-.4-.3-.4-.4v-6.5c0-.1.4-.3.6-.3.8,0,1.5.2,2.2.2,3.3.3,5.7-1.2,7.5-4,.7-1,1.3-2.1,1.8-3.2.2-.5,0-1.1-.1-1.7-.1-.9-.2-1.8-.4-2.7-.2-1.2-.3-2.4-.5-3.6-.3-1.9-.6-3.9-.9-5.8-.3-1.9-.5-3.7-.8-5.6-.3-2.1-.6-4.2-.9-6.3-.3-1.9-.6-3.7-.9-5.6-.1-.7-.3-1.5-.4-2.2,0-.1.2-.4.3-.4h8.2c.1,0,.4.3.4.5.4,3.6.8,7.2,1.2,10.8.4,4.2.6,8.3.9,12.5,0,.2.1.4.1.6.1-.2.2-.3.3-.5,2-6.1,5.1-11.7,7.8-17.5.9-2,1.9-4,2.9-6,.1-.2.5-.4.7-.4h8.5c.2,0,.5-.1.7-.1v.5c-1.3,2.4-2.5,4.7-3.8,7.1-2.3,4.3-4.5,8.5-6.8,12.8-2.4,4.5-4.9,9.1-7.3,13.6-1.6,3-3,6.1-5.2,8.8-2.1,2.6-4.7,4.5-8,5.4-.8.2-1.6.3-2.4.5l-3.6-.1h0Z"/><path class="cls-4" d="m3.5,95.6c.5-2.4,1-4.8,1.5-7.2.3-1.5.7-3,1-4.5.3-1.3.5-2.6.7-3.9.3-1.3.6-2.5.8-3.8.3-1.3.6-2.6.8-3.9.3-1.4.6-2.7.9-4.1.6-2.8,1.1-5.6,1.7-8.4.4-1.7.8-3.4,1.2-5.2.2-.9.3-1.8.5-2.7,0-.1.2-.4.4-.4,3.8,0,7.7-.2,11.5.1,3.2.2,6.4.8,9,2.9,2,1.6,3.2,3.7,3.7,6.1.5,2,.5,4.1.2,6.1-.5,3.7-2.1,6.9-5.2,9.2-2,1.5-4.2,2.5-6.7,3.2-3,.8-6,.7-9,.7-.6,0-.8.1-.9.7-.6,3.1-1.2,6.1-1.8,9.1-.4,1.9-.8,3.8-1.2,5.6,0,.2-.5.3-.7.3h-7c-.4.1-.9.1-1.4.1h0Zm16.2-23.4c2.1.1,4-.4,5.8-1.6,2.2-1.5,3.2-4.3,2.9-6.8-.2-2.1-1.2-3.6-3.2-4.2-1.2-.3-2.6-.3-3.8-.4-.7-.1-1.2.1-1.2.9,0,.5-.2,1-.3,1.5-.7,3.1-1.4,6.2-2.1,9.4-.3,1.2-.2,1.2,1,1.2.3,0,.6,0,.9,0h0Z"/><path class="cls-4" d="m53.2,48.8h4c.6,0,.6.2.5.6-.4,2-.9,4-1.3,6-.8,3.6-1.6,7.3-2.3,10.9-.4,1.8-.7,3.5-1.1,5.3-.8,3.7-1.5,7.4-2.3,11.1-.6,3-1.3,5.9-1.9,8.9-.3,1.2-.4,2.4-.7,3.6,0,.2-.3.4-.5.4h-8.3c-.1,0-.3-.3-.3-.4.2-1.2.4-2.4.7-3.6.4-1.8.8-3.6,1.2-5.4.3-1.4.6-2.8.9-4.2.3-1.7.7-3.5,1-5.2.3-1.3.7-2.6,1-3.9.3-1.2.4-2.4.7-3.6.3-1.4.6-2.7.9-4.1.3-1.2.6-2.5.8-3.7.3-1.4.6-2.8.9-4.3.3-1.7.7-3.3,1-5,.2-1,.4-2,.7-2.9.1-.2.4-.4.6-.4,1.2-.1,2.5-.1,3.8-.1h0Z"/><path class="cls-4" d="m94.4,77.1c.2,11.3-9.1,20-19.9,19.2-2.4-.3-9.8-1.6-9.5-4.8.1-1,.5-2,1.6-2.3,5.3-1.5,10.7-2.9,16-4.4,1.3-.4,1.9-1.5,1.8-2.5-.1-.8-.5-1.7-1.4-2.2-1.6-.9-19.4-8.1-21.3-9.1-4.7-2.5,1.8-7.3,4.3-9,11.9-7.2,27.9,1.3,28.4,15.1Z"/><path class="cls-4" d="m57,77.9c0-.6.1-1.2.2-1.8.4-2.1,3.3-2.6,4.6-.8,1,1.3,2.1,2.6,3.1,4,1,1.3,1,2.6-.2,3.8-.7.7-1.3,1.3-2,1.9-1.6,1.5-3.5,1.1-4.4-.9-.7-1.2-1.4-4.3-1.3-6.2h0Z"/></g></g></g></svg>