<?xml version="1.0" encoding="UTF-8"?><svg id="Layer_2" xmlns="http://www.w3.org/2000/svg" viewBox="0 0 1600 352"><defs><style>.cls-1{fill:#a17dba;}.cls-2{fill:#a27eba;}.cls-3{fill:#4fba74;}</style></defs><g id="Layer_1-2"><path class="cls-3" d="m68.5,0c.65.26,1.28.72,1.94.76,17.1,1.12,34.24,1.74,51.28,3.43,12.3,1.22,24.62,3.19,36.61,6.15,6.29,1.55,12.11,5.58,17.73,9.15,18,11.44,31.01,27.22,39.39,46.81,4.25,9.94,6.13,20.36,7.12,31.15.88,9.59-.27,18.81-2.08,28.06-2.25,11.51-7.48,21.71-14.75,30.81-7.44,9.32-16.06,17.56-26.82,22.81-6.41,3.13-13.47,5.22-20.46,6.8-25.48,5.76-51.42,5.86-77.37,5.45-4.61-.07-6.25,1.56-6.7,6.09-1.14,11.5-2.47,22.98-3.64,34.48-1.09,10.76-2.04,21.52-3.09,32.28-.88,9.08-1.78,18.17-2.79,27.23-.07.6-1.18,1.54-1.81,1.54-11.66.09-23.33.09-34.99,0-.4,0-1.11-1.04-1.13-1.61-.03-1.22.37-2.44.48-3.67.7-7.95,1.36-15.9,2.07-23.85.64-7.18,1.23-14.36,2.04-21.52.77-6.8,1.79-13.57,2.7-20.36.02-.17.07-.33.08-.49.45-6.57.86-13.15,1.35-19.71.16-2.2.69-4.39.7-6.59,0-.73-1.04-2.01-1.73-2.11-5.48-.8-11-1.3-16.49-2.02-6.06-.79-12.1-1.71-18.15-2.58,0-.67,0-1.33,0-2,.39-.79.95-1.53,1.14-2.37,1.94-8.84,3.85-17.69,5.67-26.56.39-1.9,1.23-2.56,3.2-2.55,11.16.08,22.33.05,33.49.01,4.64-.02,6.97-2.37,7.49-6.93,1.42-12.44,2.47-24.95,4.62-37.27,1.27-7.29,4.1-14.35,6.78-21.3.73-1.89,3.3-3.96,5.3-4.3,6.76-1.15,13.63-1.61,20.47-2.24,17.74-1.62,35.44-.43,53.1,1.14,11.1.99,18.51,10.96,16.74,21.8-1.15,7.04-8.13,12.21-16.76,12.08-14.47-.22-28.94-.64-43.41-.95-3.79-.08-5.78,1.57-6.22,5.26-.88,7.51-1.7,15.03-2.49,22.54-.33,3.17,1.6,5.76,4.75,6.25,4.1.64,8.22,1.31,12.35,1.61,20.03,1.45,39.08-1.83,56.78-11.8,11.32-6.37,18.6-15.85,21.41-28.39,2.95-13.13.64-25.59-5.91-37.44-6.27-11.34-15.46-19.59-26.67-25.44-6.21-3.24-13.04-5.53-19.83-7.31-7.56-1.98-15.36-3.78-23.12-4.1-15.47-.64-30.98-.22-46.48-.25-1.99,0-3.99-.02-5.98-.13-5.51-.31-11.03-.68-16.54-1.02-.07-.1-.16-.12-.26-.06-1.66-.78-4.28-.08-4.23-3.33.12-8.97-.07-17.95.15-26.91.04-1.52,1.3-3.15,2.34-4.46.74-.93,2.06-1.41,3.12-2.08,9.17,0,18.33,0,27.5,0Z"/><path class="cls-3" d="m1444.5,352c-2.37-.55-4.77-.99-7.09-1.7-.68-.21-1.62-1.14-1.63-1.75-.14-9-.18-17.99-.06-26.99,0-.5,1.63-1.42,2.47-1.38,3.14.13,6.25.63,9.39.88,13.89,1.11,23.93-5.17,31.18-16.52,2.74-4.29,5.53-8.62,7.58-13.25.85-1.91-.1-4.66-.38-7.02-.45-3.77-1.02-7.52-1.53-11.29-.67-4.96-1.3-9.93-2.02-14.89-1.17-8.04-2.4-16.06-3.59-24.1-1.15-7.8-2.27-15.61-3.41-23.42-1.28-8.79-2.5-17.59-3.88-26.36-1.22-7.75-2.63-15.46-3.94-23.2-.53-3.12-1.12-6.23-1.5-9.37-.05-.46.94-1.49,1.46-1.5,11.41-.09,22.83-.1,34.24.02.62,0,1.68,1.18,1.76,1.9,1.69,15.01,3.49,30.01,4.79,45.06,1.51,17.38,2.56,34.81,3.83,52.21.06.84.37,1.66.56,2.5.39-.7.9-1.36,1.15-2.1,8.38-25.4,21.36-48.73,32.7-72.8,3.95-8.38,7.95-16.74,12.08-25.03.44-.88,1.96-1.73,2.98-1.74,11.75-.12,23.49-.06,35.24-.1,1.03,0,2.07-.36,3.1-.55v2c-5.26,9.8-10.55,19.59-15.78,29.41-9.45,17.77-18.81,35.59-28.28,53.35-10.12,18.96-20.29,37.9-30.51,56.81-6.73,12.44-12.55,25.42-21.54,36.54-8.84,10.93-19.62,18.95-33.45,22.39-3.28.81-6.63,1.34-9.94,2.01h-16Z"/><path class="cls-3" d="m575.37,291.08c-9.72-.68-16.42-.46-22.83-1.73-15.88-3.16-30.74-8.89-43.4-19.46-9.13-7.63-16.48-16.69-21.71-27.32-4.19-8.51-7.4-17.45-7.97-27.02-.55-9.24-1.22-18.54-.73-27.76.72-13.56,4.19-26.65,9.14-39.33,4.24-10.84,9.72-20.98,16.33-30.54,8.73-12.64,19.13-23.69,31.57-32.7,12.88-9.34,26.7-17.05,41.95-21.82,10.86-3.4,22.01-5.25,33.38-6.55,12.13-1.39,23.89.27,35.5,2.49,11.88,2.27,23.19,6.88,33.1,14.21,4.73,3.5,5.86,8.43,3.32,14.82-4.12,10.35-11.06,18.15-21.38,22.62-.93.4-2.8-.14-3.63-.9-7.22-6.64-15.64-11.12-25.08-13.37-9.57-2.28-19.18-3.32-29.2-1.95-9.06,1.23-17.7,3.28-25.69,7.47-6.03,3.17-11.96,6.74-17.31,10.92-8.23,6.44-15.2,14.24-20.73,23.18-6.41,10.38-10.92,21.46-13.78,33.41-2.79,11.64-3.55,23.26-2.19,34.99,2.56,22.07,17.65,41.22,40.18,46.43,9.92,2.29,19.83,2.2,29.93,1.1,14.73-1.61,27.47-7.62,39.38-15.95,8.95-6.26,15.83-3.81,18.8,7.24,2.68,9.99.41,20.88-8.36,27.36-5.29,3.91-11.53,6.77-17.71,9.19-7.84,3.08-15.9,5.94-24.12,7.6-9.79,1.97-19.86,2.55-26.76,3.37Z"/><path class="cls-3" d="m1081.67,290.7c2.14-9.98,4.28-19.96,6.42-29.94,1.33-6.24,2.72-12.47,3.97-18.72,1.08-5.39,1.9-10.83,3-16.21,1.08-5.31,2.39-10.57,3.55-15.87,1.19-5.44,2.3-10.9,3.46-16.35,1.22-5.68,2.51-11.34,3.69-17.02,2.44-11.65,4.78-23.33,7.26-34.98,1.53-7.2,3.28-14.36,4.85-21.56.83-3.8,1.44-7.64,2.28-11.43.13-.59.96-1.47,1.47-1.47,16-.06,32.04-.73,47.98.21,13.36.79,26.61,3.25,37.71,12.06,8.4,6.67,13.25,15.3,15.62,25.56,1.95,8.44,2.13,16.98,1.03,25.51-2.02,15.63-8.73,28.66-21.54,38.31-8.42,6.34-17.71,10.49-27.88,13.26-12.45,3.4-25.07,2.94-37.71,2.95-2.31,0-3.28.56-3.74,2.96-2.45,12.72-5.06,25.42-7.69,38.11-1.62,7.83-3.28,15.65-5.14,23.42-.15.64-1.94,1.26-2.97,1.27-9.75.09-19.5.04-29.24.03-2.08,0-4.16,0-6.24,0,0,0-.03-.12-.03-.12h-.13Zm67.76-97.55c8.74.35,16.81-1.64,24.17-6.53,9.2-6.12,13.48-17.92,12.25-28.41-1.01-8.57-4.85-15.08-13.4-17.35-5.12-1.36-10.64-1.17-15.97-1.81-3.13-.38-4.98.37-5.08,3.95-.06,2.05-.65,4.1-1.1,6.12-2.87,13-5.81,25.98-8.64,38.99-1.11,5.08-1,5.1,4.26,5.04,1.17-.01,2.33,0,3.5,0Z"/><path class="cls-3" d="m932.67,127.07c4.58,0,9.16.04,13.75-.02,1.62-.02,2.17.26,1.71,2.13-3.95,16.27-7.75,32.57-11.67,48.84-.6,2.48-1.6,4.86-2.36,7.31-.16.51-.06,1.1-.07,1.66.49-.33,1.1-.56,1.47-1,6.68-8.05,14.65-14.22,25.29-15.6,9.92-1.29,19.51-.26,27.05,7.41,4.52,4.6,6.57,10.4,7.64,16.68,1.82,10.69-.52,20.93-2.84,31.25-1.88,8.36-3.27,16.84-4.98,25.25-1.14,5.62-2.48,11.2-3.68,16.81-1.19,5.55-2.25,11.14-3.55,16.66-.18.76-1.4,1.82-2.15,1.83-8.99.13-17.98.07-26.98.09-1.96,0-2.44-.39-1.8-2.6,1.43-4.95,2.35-10.06,3.45-15.11,1.65-7.59,3.37-15.16,4.9-22.78,2.44-12.13,4.95-24.25,7.01-36.45.85-5.04.25-10.37-5.01-13.08-5.38-2.77-10.76-1.56-15.49,1.96-7.12,5.3-11.09,12.97-13.73,21.03-3.33,10.16-5.7,20.66-8.18,31.08-2.42,10.19-4.47,20.47-6.67,30.72-.17.81-.22,1.64-.38,2.45-.37,1.89-1.16,2.99-3.48,2.95-8.74-.15-17.49-.07-26.24-.06-1.43,0-2.37.27-1.76-2.09,1.66-6.44,2.68-13.03,4.1-19.53,2.48-11.34,5.15-22.65,7.6-33.99,2.67-12.35,5.18-24.73,7.79-37.09,1.65-7.82,3.37-15.62,4.99-23.44,2.9-14.01,5.72-28.04,8.67-42.04.11-.51,1.2-1.16,1.84-1.17,4.58-.1,9.16-.05,13.74-.06Z"/><path class="cls-3" d="m240.65,293.57c-3.41,0-6.83,0-10.24,0-1.64,0-1.99-.42-1.55-2.27.83-3.5,1.08-7.13,1.52-10.71.05-.42-.24-.88-.37-1.33-.46.32-.95.6-1.37.96-4.11,3.53-7.83,7.68-12.39,10.49-7.44,4.59-15.69,6.18-24.6,4.82-13.74-2.11-20.83-11.23-24.8-23.26-3.03-9.19-2.36-18.93-1.41-28.4,1.86-18.64,7.76-35.87,20.14-50.33,6.21-7.26,13.59-13.03,23.21-15.15,14.09-3.11,28.92.17,36.77,14.11.3.54.85.93,1.28,1.4.36-.54.81-1.05,1.06-1.64,1.54-3.77,2.95-7.59,4.62-11.3.37-.83,1.59-1.79,2.44-1.81,6.24-.15,12.5.06,18.74-.15,2.76-.1,3.07,1.08,2.62,3.23-.98,4.63-1.95,9.27-2.96,13.9-2.14,9.82-4.32,19.63-6.44,29.45-2.38,11.03-4.67,22.08-7.07,33.11-1.84,8.45-3.8,16.88-5.67,25.32-.37,1.69-.81,3.42-.82,5.14-.03,4.03-2.11,4.96-5.71,4.49-2.29-.29-4.66-.06-6.99-.06h0Zm-3.21-71.19c0-1.92.06-3.83-.01-5.75-.29-8.12-6.9-14.45-14.94-14.19-6.74.22-10.98,4.63-14.37,9.66-9.88,14.67-13.54,31.06-11.41,48.48.84,6.84,6.68,10.95,13.28,10.36,5.97-.53,10.72-3.81,14.48-8.56,9.3-11.74,12.38-25.47,12.97-40.01Z"/><path class="cls-3" d="m741.11,286.32c-3.25,0-6.5.11-9.73-.09-.68-.04-1.85-1.29-1.82-1.94.15-3.61.61-7.2.93-10.8.05-.61-.08-1.23-.13-1.85-.49.41-1.07.75-1.46,1.24-5.06,6.4-11.32,11.45-19.15,13.53-17.42,4.62-31.57,1.69-40.04-15.28-4.6-9.21-4.41-19.32-4.31-29.39.12-12.1,2.83-23.63,7.51-34.59,4.58-10.74,10.44-20.83,19.94-28.21,13.55-10.54,32.13-12.3,44.43-3.35,3.38,2.46,5.95,6.13,8.56,9.5,1.2,1.55,1.7,1.62,2.38-.04,1.21-2.92,2.56-5.81,3.36-8.85.78-2.99,1.98-4.42,5.39-4.25,5.98.3,11.99.13,17.99.02,1.87-.03,2.04.7,1.71,2.26-2.42,11.35-4.7,22.74-7.19,34.07-2.01,9.13-4.3,18.2-6.35,27.32-.83,3.68-1.27,7.44-2.05,11.14-1.46,6.94-3.06,13.85-4.54,20.79-1.21,5.65-2.27,11.32-3.58,16.95-.17.75-1.34,1.76-2.09,1.81-3.24.2-6.49.09-9.74.09,0-.02,0-.04,0-.06Zm-44.94-41.28c.37,2.58.79,6.27,1.46,9.92.67,3.63,5.92,7.73,9.55,8.17,7.46.89,12.97-2.28,17.41-7.88,10.99-13.89,14.24-30.02,12.89-47.19-.68-8.63-7.24-13.66-15.57-12.95-5.08.44-8.75,3.49-11.74,7.31-9.51,12.17-12.94,26.39-13.99,42.63Z"/><path class="cls-3" d="m1289.22,95.47c5.5,0,11,.13,16.49-.06,2.3-.08,2.49.85,2.1,2.63-1.86,8.37-3.75,16.74-5.55,25.13-3.26,15.18-6.47,30.37-9.68,45.56-1.56,7.38-3.06,14.76-4.59,22.14-3.21,15.49-6.36,30.99-9.65,46.45-2.62,12.32-5.45,24.6-8.1,36.91-1.06,4.92-1.82,9.9-2.93,14.8-.16.71-1.46,1.66-2.24,1.67-11.49.12-22.99.12-34.48.04-.43,0-1.28-1.12-1.2-1.59.86-5.01,1.81-10,2.84-14.97,1.56-7.54,3.21-15.06,4.82-22.58,1.25-5.85,2.52-11.69,3.71-17.55,1.46-7.21,2.74-14.46,4.3-21.65,1.2-5.51,2.84-10.92,4.07-16.43,1.11-5,1.87-10.08,2.89-15.1,1.16-5.71,2.43-11.4,3.67-17.09,1.13-5.17,2.33-10.33,3.45-15.51,1.27-5.92,2.5-11.86,3.7-17.79,1.42-6.96,2.74-13.93,4.21-20.88.87-4.12,1.81-8.23,3-12.26.25-.83,1.74-1.81,2.68-1.84,5.49-.17,10.99-.09,16.49-.09v.03Z"/><path class="cls-3" d="m437.43,275.83c0,1.33,0,2.67,0,4,0,7.31.05,7.42-6.66,10.09-7.2,2.86-14.55,5.16-22.46,5.21-4.52.03-9.07,1.05-13.56.85-9.3-.42-18.43-2.04-26.23-7.6-9.46-6.74-14.64-15.94-16.02-27.6-1.43-12.04-.38-23.79,3.09-35.26,6.09-20.19,17.54-36.14,37.85-44.1,13.58-5.32,27.59-5.94,41.45-1.03,12.99,4.6,19.81,15.55,19.43,29.41-.31,11.52-5.29,20.74-14.7,26.66-6.47,4.07-14.14,6.42-21.5,8.86-10.62,3.53-21.75,2.67-32.74,2.83-.74.01-2,1.07-2.11,1.78-2.07,13.47,7.07,23.36,20.72,22.9,10.94-.37,21.2-3.09,30.91-8.01,1.91-.97,2.66-.86,2.57,1.51-.13,3.16-.03,6.33-.03,9.5Zm-42.48-48.41c.03.16.06.31.1.47,4.64-.8,9.37-1.29,13.9-2.49,6.06-1.61,11.67-4.31,14.57-10.38,3.04-6.35,1.33-16.19-9.37-15.28-3.69.31-7.68,1.22-10.84,3.05-8.99,5.19-13.67,13.78-16.53,23.46-.07.25.74,1.1,1.17,1.12,2.33.11,4.66.05,6.99.05Z"/><path class="cls-3" d="m815.53,287.99c-9.65.56-19.35-.43-28.67-4.16-2.22-.89-3.66-1.78-3.53-4.72.3-6.65.17-13.32.05-19.99-.04-2.26.56-2.16,2.38-1.43,6.2,2.48,12.33,5.55,18.79,6.88,8.61,1.77,17.48,2.53,25.49-3.17,4.54-3.23,6.42-9.2,2.38-13.11-4.98-4.81-10.8-8.87-16.68-12.59-7.43-4.7-14.59-9.51-18.41-17.8-2.66-5.78-2.72-11.89-1.89-18.1,1.08-8.18,4.52-15.29,10.74-20.47,6.15-5.13,13.65-7.87,21.7-8.75,10.07-1.1,20.16-1.15,29.95,1.59,5.7,1.6,11.12,4.19,16.58,6.53.53.23.94,2.03.63,2.75-2.62,6.03-5.49,11.95-8.15,17.96-.77,1.75-1.52,1.98-3.17,1.03-7.37-4.24-15.16-7.28-23.79-7.49-4.45-.11-8.79.65-11.69,4.41-3.19,4.13-2.36,9.54,2.13,12.76,3.91,2.8,8.17,5.12,12.38,7.46,8.01,4.47,15.71,9.33,19.96,17.87,4.68,9.4,3.67,19.06.32,28.59-2.41,6.86-6.9,12.11-12.98,16.14-7.16,4.75-15.09,7.07-23.53,7.75-3.56.29-7.16.05-11.01.05Z"/><path class="cls-3" d="m299.43,293.59c-4.41,0-8.83,0-13.24,0-1.45,0-2.26.21-1.73-2.12,2.12-9.21,3.64-18.55,5.61-27.79,2.06-9.63,4.48-19.18,6.56-28.81,3.06-14.12,5.96-28.28,8.96-42.42.84-3.98,1.72-7.97,2.74-11.91.15-.6,1.14-1.4,1.75-1.4,9.16-.09,18.33-.01,27.49-.11,2.05-.02,1.63,1.1,1.4,2.21-1.6,7.55-3.25,15.1-4.86,22.65-2.19,10.23-4.4,20.46-6.54,30.71-1.44,6.9-2.67,13.84-4.13,20.73-2.62,12.29-5.32,24.56-8.12,36.81-.14.63-1.55,1.35-2.38,1.37-4.49.14-8.99.06-13.49.07Z"/><path class="cls-3" d="m328.14,165.07c-4.87.25-10.03-.18-12.89-5-4.08-6.86-2.45-20.96,8.11-23.99,6.8-1.95,13.53-2.68,19.49,1.78,2.01,1.5,3.77,4.44,4.07,6.92,1.54,12.48-5.95,21.23-18.78,20.29Z"/><polygon class="cls-2" points="1081.67 290.7 1081.8 290.69 1081.83 290.81 1081.71 290.82 1081.67 290.7"/><path class="cls-1" d="m1460.98,213.5c.87,46.95-37.76,83.3-83.02,79.89-10.2-1.25-41.07-6.53-39.51-20.05.3-4.16,2.14-8.14,6.75-9.45,22.19-6.29,44.55-12.02,66.7-18.45,5.26-1.55,7.77-6.06,7.38-10.39-.3-3.24-2.22-7-6.02-9.22-6.52-3.81-81.02-33.8-88.64-37.86-19.68-10.48,7.36-30.64,18.02-37.46,49.31-30.2,116.18,5.32,118.34,62.99Z"/><path class="cls-1" d="m1304.93,216.73c.1-2.48.3-4.98.84-7.38,1.87-8.94,13.92-10.67,19-3.41,4.3,5.49,8.61,10.97,12.87,16.48,4.33,5.61,3.98,11.03-1.03,16.05-2.71,2.71-5.45,5.4-8.23,8.03-6.57,6.21-14.76,4.58-18.51-3.65-2.42-5.32-5.25-17.98-4.94-26.12Z"/></g></svg>